<svg xmlns="http://www.w3.org/2000/svg" version="1.1" xmlns:xlink="http://www.w3.org/1999/xlink" xmlns:svgjs="http://svgjs.dev/svgjs" width="2000" height="1500" viewBox="0 0 2000 1500"><rect width="2000" height="1500" fill="#f6340c"></rect><g transform="matrix(0.75,0,0,0.75,249.090909090909,282.7536437246963)"><svg viewBox="0 0 396 247" data-background-color="#f6340c" preserveAspectRatio="xMidYMid meet" height="1247" width="2000" xmlns="http://www.w3.org/2000/svg" xmlns:xlink="http://www.w3.org/1999/xlink"><g id="tight-bounds" transform="matrix(1,0,0,1,0.2400000000000091,-0.09999999999999432)"><svg viewBox="0 0 395.52 247.2" height="247.2" width="395.52"><g><svg></svg></g><g><svg viewBox="0 0 395.52 247.2" height="247.2" width="395.52"><mask id="019e703f-5a2a-4bca-85b1-ca61bdb0f701"><rect width="640" height="400" fill="white"></rect><g transform="matrix(1,0,0,1,56.168003390326646,37.08)"><svg viewBox="0 0 283.1839932193467 173.04" height="173.04" width="283.1839932193467"><g><svg viewBox="0 0 283.1839932193467 173.04" height="173.04" width="283.1839932193467"><g><svg viewBox="0 0 283.1839932193467 173.04" height="173.04" width="283.1839932193467"><g><svg viewBox="0 0 283.1839932193467 173.04" height="173.04" width="283.1839932193467"><g id="SvgjsG1308"><svg viewBox="0 0 283.1839932193467 173.04" height="173.04" width="283.1839932193467" id="SvgjsSvg1307"><g><svg viewBox="0 0 283.1839932193467 173.04" height="173.04" width="283.1839932193467"><g transform="matrix(1,0,0,1,0,0)"><svg width="283.1839932193467" viewBox="2.98 -36.91 73.63438416034799 45.379999999999995" height="173.04" data-palette-color="#ffffff"><path d="M36.35-9.55L36.35-9.55Q36.35-8.06 35.86-6.76 35.38-5.47 34.52-4.41 33.67-3.34 32.53-2.51 31.4-1.68 30.09-1.12 28.78-0.56 27.39-0.28 26 0 24.66 0L24.66 0 3.98 0 3.98-35.16 22.88-35.16Q24.12-35.16 25.49-34.97 26.86-34.79 28.16-34.4 29.47-34.01 30.65-33.37 31.84-32.74 32.73-31.82 33.62-30.91 34.14-29.71 34.67-28.52 34.67-26.98L34.67-26.98Q34.67-25.51 34.08-24.32 33.5-23.12 32.51-22.18 31.52-21.24 30.24-20.52 28.96-19.8 27.54-19.26L27.54-19.26Q29.32-18.77 30.92-17.97 32.52-17.16 33.73-15.99 34.94-14.82 35.64-13.22 36.35-11.62 36.35-9.55ZM24.83-26.12L24.83-26.12Q24.83-29.1 23.25-30.47 21.68-31.84 18.77-31.84L18.77-31.84 13.67-31.84 13.67-20.43 17.94-20.43Q19.26-20.43 20.51-20.76 21.75-21.09 22.72-21.79 23.68-22.49 24.26-23.56 24.83-24.63 24.83-26.12ZM26.54-10.16L26.54-10.16Q26.54-11.6 26.17-12.85 25.81-14.11 25.05-15.03 24.29-15.94 23.16-16.47 22.02-16.99 20.48-16.99L20.48-16.99 13.67-16.99 13.67-3.42 19.63-3.42Q21.12-3.42 22.39-3.91 23.66-4.39 24.58-5.27 25.51-6.15 26.03-7.4 26.54-8.64 26.54-10.16ZM75.61-16.82L75.61-16.82 75.61-16.36Q75.56-14.31 75.18-12.11 74.8-9.91 74.12-7.71 73.44-5.52 72.48-3.37 71.53-1.22 70.35 0.74 69.16 2.71 67.8 4.43 66.43 6.15 64.91 7.47L64.91 7.47 61.28 5.37Q62.13 3.93 62.83 2.23 63.52 0.54 64.08-1.32 64.65-3.17 65.05-5.13 65.45-7.08 65.72-9.01 65.99-10.94 66.12-12.81 66.26-14.67 66.26-16.36L66.26-16.36Q66.26-17.68 66.25-19.35 66.23-21.02 66.05-22.75 65.87-24.49 65.45-26.14 65.04-27.78 64.22-29.08 63.4-30.37 62.12-31.15 60.84-31.93 58.93-31.93L58.93-31.93Q57.25-31.93 56.04-31.36 54.83-30.79 53.99-29.82 53.15-28.86 52.65-27.59 52.15-26.32 51.87-24.91 51.58-23.51 51.5-22.08 51.41-20.65 51.41-19.38L51.41-19.38 51.41-12.57 61.94-12.57 61.94-8.54 51.41-8.54 51.41 0 41.72 0 41.72-17.87Q41.72-21.7 42.94-25 44.16-28.3 46.4-30.73 48.63-33.15 51.77-34.53 54.9-35.91 58.76-35.91L58.76-35.91Q61.37-35.91 63.66-35.17 65.94-34.42 67.82-33.12 69.7-31.81 71.18-30.02 72.65-28.22 73.64-26.1 74.63-23.97 75.14-21.61 75.66-19.24 75.61-16.82Z" opacity="1" transform="matrix(1,0,0,1,0,0)" fill="black" class="wordmark-text-0" id="SvgjsPath1306" stroke-width="1" stroke="black" stroke-linejoin="round"></path></svg></g></svg></g></svg></g></svg></g><g></g></svg></g></svg></g></svg></g></mask><g transform="matrix(1,0,0,1,56.168003390326646,37.08)"><svg viewBox="0 0 283.1839932193467 173.04" height="173.04" width="283.1839932193467"><g><svg viewBox="0 0 283.1839932193467 173.04" height="173.04" width="283.1839932193467"><g><svg viewBox="0 0 283.1839932193467 173.04" height="173.04" width="283.1839932193467"><g><svg viewBox="0 0 283.1839932193467 173.04" height="173.04" width="283.1839932193467"><g id="textblocktransform"><svg viewBox="0 0 283.1839932193467 173.04" height="173.04" width="283.1839932193467" id="textblock"><g><svg viewBox="0 0 283.1839932193467 173.04" height="173.04" width="283.1839932193467"><g transform="matrix(1,0,0,1,0,0)"><svg width="283.1839932193467" viewBox="2.98 -36.91 73.63438416034799 45.379999999999995" height="173.04" data-palette-color="#ffffff"><path d="M36.35-9.55L36.35-9.55Q36.35-8.06 35.86-6.76 35.38-5.47 34.52-4.41 33.67-3.34 32.53-2.51 31.4-1.68 30.09-1.12 28.78-0.56 27.39-0.28 26 0 24.66 0L24.66 0 3.98 0 3.98-35.16 22.88-35.16Q24.12-35.16 25.49-34.97 26.86-34.79 28.16-34.4 29.47-34.01 30.65-33.37 31.84-32.74 32.73-31.82 33.62-30.91 34.14-29.71 34.67-28.52 34.67-26.98L34.67-26.98Q34.67-25.51 34.08-24.32 33.5-23.12 32.51-22.18 31.52-21.24 30.24-20.52 28.96-19.8 27.54-19.26L27.54-19.26Q29.32-18.77 30.92-17.97 32.52-17.16 33.73-15.99 34.94-14.82 35.64-13.22 36.35-11.62 36.35-9.55ZM24.83-26.12L24.83-26.12Q24.83-29.1 23.25-30.47 21.68-31.84 18.77-31.84L18.77-31.84 13.67-31.84 13.67-20.43 17.94-20.43Q19.26-20.43 20.51-20.76 21.75-21.09 22.72-21.79 23.68-22.49 24.26-23.56 24.83-24.63 24.83-26.12ZM26.54-10.16L26.54-10.16Q26.54-11.6 26.17-12.85 25.81-14.11 25.05-15.03 24.29-15.94 23.16-16.47 22.02-16.99 20.48-16.99L20.48-16.99 13.67-16.99 13.67-3.42 19.63-3.42Q21.12-3.42 22.39-3.91 23.66-4.39 24.58-5.27 25.51-6.15 26.03-7.4 26.54-8.64 26.54-10.16ZM75.61-16.82L75.61-16.82 75.61-16.36Q75.56-14.31 75.18-12.11 74.8-9.91 74.12-7.71 73.44-5.52 72.48-3.37 71.53-1.22 70.35 0.74 69.16 2.71 67.8 4.43 66.43 6.15 64.91 7.47L64.91 7.47 61.28 5.37Q62.13 3.93 62.83 2.23 63.52 0.54 64.08-1.32 64.65-3.17 65.05-5.13 65.45-7.08 65.72-9.01 65.99-10.94 66.12-12.81 66.26-14.67 66.26-16.36L66.26-16.36Q66.26-17.68 66.25-19.35 66.23-21.02 66.05-22.75 65.87-24.49 65.45-26.14 65.04-27.78 64.22-29.08 63.4-30.37 62.12-31.15 60.84-31.93 58.93-31.93L58.93-31.93Q57.25-31.93 56.04-31.36 54.83-30.79 53.99-29.82 53.15-28.86 52.65-27.59 52.15-26.32 51.87-24.91 51.58-23.51 51.5-22.08 51.41-20.65 51.41-19.38L51.41-19.38 51.41-12.57 61.94-12.57 61.94-8.54 51.41-8.54 51.41 0 41.72 0 41.72-17.87Q41.72-21.7 42.94-25 44.16-28.3 46.4-30.73 48.63-33.15 51.77-34.53 54.9-35.91 58.76-35.91L58.76-35.91Q61.37-35.91 63.66-35.17 65.94-34.42 67.82-33.12 69.7-31.81 71.18-30.02 72.65-28.22 73.64-26.1 74.63-23.97 75.14-21.61 75.66-19.24 75.61-16.82Z" opacity="1" transform="matrix(1,0,0,1,0,0)" fill="#ffffff" class="wordmark-text-0" data-fill-palette-color="primary" id="text-0"></path></svg></g></svg></g></svg></g></svg></g><g></g></svg></g></svg></g></svg></g><g mask="url(#019e703f-5a2a-4bca-85b1-ca61bdb0f701)"><g transform="matrix(2.7214206437291897, 0, 0, 2.7214206437291897, 105.85592739920546, 1)"><svg xmlns="http://www.w3.org/2000/svg" xmlns:xlink="http://www.w3.org/1999/xlink" version="1.1" x="0" y="0" viewBox="16.22937625884345 4.9 67.54124748231311 90.1" enable-background="new 0 0 100 100" xml:space="preserve" height="90.1" width="67.54124748231311" class="icon-none" data-fill-palette-color="accent" id="none"><path d="M63 50.6L83.3 56.9C84.1 57.1 83.8 58.3 83 58.2L62 55.1C61.4 55 61 55.8 61.5 56.2L77 70.7C77.6 71.2 76.9 72.2 76.2 71.7L58.6 59.8C58.1 59.4 57.4 60 57.6 60.6L65.3 80.4C65.6 81.1 64.5 81.6 64.1 81L53.5 62.5C53.2 62 52.3 62.1 52.3 62.8L50.7 94.4C50.6 95.2 49.5 95.2 49.4 94.4L47.8 62.8C47.8 62.2 46.9 62 46.6 62.5L35.8 80.9C35.4 81.6 34.3 81.1 34.6 80.3L42.3 60.5C42.5 59.9 41.9 59.4 41.3 59.7L23.8 71.7C23.1 72.1 22.4 71.2 23 70.7L38.5 56.2C39 55.8 38.6 55 38 55.1L17 58.2C16.2 58.3 16 57.2 16.7 56.9L37 50.6C37.6 50.4 37.6 49.6 37 49.4L16.7 43.1C15.9 42.9 16.2 41.7 17 41.8L38 44.9C38.6 45 39 44.2 38.5 43.8L23 29.3C22.4 28.8 23.1 27.8 23.8 28.3L41.4 40.2C41.9 40.6 42.6 40 42.4 39.4L34.7 19.6C34.4 18.9 35.5 18.4 35.9 19L46.6 37.4C46.9 37.9 47.8 37.8 47.8 37.1L49.4 5.5C49.5 4.7 50.6 4.7 50.7 5.5L52.3 37.1C52.3 37.7 53.2 37.9 53.5 37.4L64.2 19C64.6 18.3 65.7 18.8 65.4 19.6L57.7 39.4C57.5 40 58.1 40.5 58.7 40.2L76.3 28.3C77 27.9 77.7 28.8 77.1 29.3L61.4 43.8C61 44.2 61.3 45 62 44.9L83 41.8C83.8 41.7 84 42.8 83.3 43.1L63 49.4C62.4 49.6 62.4 50.4 63 50.6" fill="#131313" data-fill-palette-color="accent"></path></svg></g></g></svg></g><defs></defs></svg><rect width="395.52" height="247.2" fill="none" stroke="none" visibility="hidden"></rect></g></svg></g></svg>